:FULLY-SPECIFIED
:FORCE-ALL-JOINTS-BE-3DOF
:DEGREES
2242
root -0.738098 13.835 -16.4042 -169.743 -25.7264 169.239
lfemur 11.1661 0.170618 -14.8898
ltibia 34.3022 -0 0
lfoot -24.1346 36.3495 0.00948571
ltoes -43.0499 0 0
rfemur -70.7186 -22.2201 8.6953
rtibia 72.4923 -0 0
rfoot -5.43461 14.2065 -0.0161311
rtoes 3.60684 -0 0
lowerback 9.59544 2.14455 -13.4969
upperback -2.69679 0.792219 -1.94635
thorax -8.57652 0.947894 5.35304
lowerneck 1.10192 -12.0233 -12.4843
upperneck 4.72048 -16.7364 10.3593
head 3.14294 -8.41253 4.41006
lclavicle 2.8597e-14 2.36554e-14 0
lhumerus -69.5091 -18.1239 103.997
lradius 102.115 -0 0
lwrist 60.8422 0 0
lhand -10.501 62.4556 0.0648796
lfingers 7.12502 -0 0
lthumb 15.2553 147.932 1.40547
rclavicle 2.8597e-14 2.36554e-14 0
rhumerus 49.2876 -9.88876 -59.9767
rradius 16.7391 -0 0
rwrist 35.2102 0 0
rhand -19.8625 -42.7707 -0.000608836
rfingers 7.12502 -0 0
rthumb 6.47255 -72.6518 -0.000546163
2243
root -0.741698 13.8283 -16.4291 -169.584 -25.697 169.18
lfemur 11.2617 0.127715 -14.9468
ltibia 34.0255 -0 0
lfoot -24.0675 36.3923 0.00913436
ltoes -43.2404 0 0
rfemur -70.9452 -22.2987 8.73814
rtibia 72.7133 -0 0
rfoot -5.58792 14.2384 -0.0155335
rtoes 3.68089 -0 0
lowerback 9.5007 2.14525 -13.5331
upperback -2.72466 0.797952 -1.96874
thorax -8.55466 0.950903 5.34837
lowerneck 1.08429 -12.038 -12.4661
upperneck 4.69864 -16.7525 10.3691
head 3.14046 -8.4193 4.40854
lclavicle 2.8597e-14 2.36554e-14 0
lhumerus -69.5131 -18.1415 104.001
lradius 102.096 -0 0
lwrist 60.9093 0 0
lhand -10.5867 62.2262 0.0624753
lfingers 7.12502 -0 0
lthumb 15.1465 143.702 1.34368
rclavicle 2.8597e-14 2.36554e-14 0
rhumerus 49.2996 -9.90538 -59.9113
rradius 16.7569 -0 0
rwrist 35.1351 0 0
rhand -19.8831 -42.7617 -0.000586287
rfingers 7.12502 -0 0
rthumb 6.4527 -72.6434 -0.000525935
2244
root -0.745298 13.8215 -16.454 -169.425 -25.6674 169.121
lfemur 11.3573 0.0849077 -15.0039
ltibia 33.7488 -0 0
lfoot -24.0003 36.4352 0.00873283
ltoes -43.4309 0 0
rfemur -71.1721 -22.3772 8.78134
rtibia 72.9343 -0 0
rfoot -5.74123 14.2703 -0.0148505
rtoes 3.75493 -0 0
lowerback 9.40597 2.14589 -13.5692
upperback -2.75254 0.803674 -1.99113
thorax -8.53281 0.953913 5.3437
lowerneck 1.06665 -12.0526 -12.4478
upperneck 4.6768 -16.7686 10.379
head 3.13797 -8.42606 4.40702
lclavicle 2.8597e-14 2.36554e-14 0
lhumerus -69.5171 -18.1591 104.006
lradius 102.077 -0 0
lwrist 60.9765 0 0
lhand -10.6725 61.9967 0.0597277
lfingers 7.12502 -0 0
lthumb 15.0427 139.472 1.27405
rclavicle 2.8597e-14 2.36554e-14 0
rhumerus 49.3115 -9.92202 -59.8459
rradius 16.7747 -0 0
rwrist 35.0599 0 0
rhand -19.9036 -42.7527 -0.000560516
rfingers 7.12502 -0 0
rthumb 6.43285 -72.6351 -0.000502817
2245
root -0.748898 13.8147 -16.479 -169.266 -25.6377 169.063
lfemur 11.453 0.0421958 -15.0611
ltibia 33.4721 -0 0
lfoot -23.9332 36.478 0.00828111
ltoes -43.6214 0 0
rfemur -71.3991 -22.4556 8.8249
rtibia 73.1552 -0 0
rfoot -5.89454 14.3022 -0.0140822
rtoes 3.82898 -0 0
lowerback 9.31124 2.14647 -13.6054
upperback -2.78042 0.809385 -2.01352
thorax -8.51095 0.956926 5.33904
lowerneck 1.04901 -12.0672 -12.4295
upperneck 4.65496 -16.7848 10.3889
head 3.13549 -8.43283 4.40551
lclavicle 2.8597e-14 2.36554e-14 0
lhumerus -69.5211 -18.1767 104.01
lradius 102.058 -0 0
lwrist 61.0436 0 0
lhand -10.7582 61.7673 0.0566368
lfingers 7.12502 -0 0
lthumb 14.9443 135.242 1.19695
rclavicle 2.8597e-14 2.36554e-14 0
rhumerus 49.3234 -9.93867 -59.7805
rradius 16.7925 -0 0
rwrist 34.9848 0 0
rhand -19.9242 -42.7437 -0.000531523
rfingers 7.12502 -0 0
rthumb 6.413 -72.6268 -0.000476809
2246
root -0.752499 13.808 -16.5039 -169.108 -25.6079 169.004
lfemur 11.5487 -0.000420651 -15.1183
ltibia 33.1954 -0 0
lfoot -23.8661 36.5208 0.0077792
ltoes -43.8118 0 0
rfemur -71.6263 -22.5337 8.86883
rtibia 73.3762 -0 0
rfoot -6.04785 14.3341 -0.0132286
rtoes 3.90303 -0 0
lowerback 9.2165 2.14699 -13.6415
upperback -2.8083 0.815085 -2.03591
thorax -8.48909 0.95994 5.33437
lowerneck 1.03136 -12.0819 -12.4112
upperneck 4.63311 -16.8009 10.3988
head 3.13301 -8.4396 4.40399
lclavicle 2.8597e-14 2.36554e-14 0
lhumerus -69.5251 -18.1943 104.014
lradius 102.04 -0 0
lwrist 61.1107 0 0
lhand -10.8439 61.5379 0.0532026
lfingers 7.12502 -0 0
lthumb 14.8518 131.013 1.1128
rclavicle 2.8597e-14 2.36554e-14 0
rhumerus 49.3353 -9.95533 -59.7151
rradius 16.8103 -0 0
rwrist 34.9097 0 0
rhand -19.9448 -42.7348 -0.00049931
rfingers 7.12502 -0 0
rthumb 6.39315 -72.6184 -0.000447911
2247
root -0.756099 13.8012 -16.5288 -168.949 -25.5779 168.945
lfemur 11.6445 -0.0429415 -15.1756
ltibia 32.9187 -0 0
lfoot -23.799 36.5637 0.0072271
ltoes -44.0023 0 0
rfemur -71.8537 -22.6117 8.91311
rtibia 73.5971 -0 0
rfoot -6.20116 14.366 -0.0122896
rtoes 3.97708 -0 0
lowerback 9.12177 2.14745 -13.6777
upperback -2.83619 0.820775 -2.05831
thorax -8.46723 0.962955 5.32971
lowerneck 1.0137 -12.0965 -12.3929
upperneck 4.61126 -16.817 10.4087
head 3.13053 -8.44636 4.40248
lclavicle 2.8597e-14 2.36554e-14 0
lhumerus -69.5291 -18.2119 104.018
lradius 102.021 -0 0
lwrist 61.1779 0 0
lhand -10.9296 61.3084 0.0494253
lfingers 7.12502 -0 0
lthumb 14.7658 126.783 1.02206
rclavicle 2.8597e-14 2.36554e-14 0
rhumerus 49.3471 -9.97201 -59.6497
rradius 16.8281 -0 0
rwrist 34.8346 0 0
rhand -19.9653 -42.7258 -0.000463875
rfingers 7.12502 -0 0
rthumb 6.3733 -72.6101 -0.000416124
